<mxfile host="app.diagrams.net" modified="2021-04-20T12:41:57.887Z" agent="5.0 (Windows NT 10.0; Win64; x64) AppleWebKit/537.36 (KHTML, like Gecko) Chrome/89.0.4389.128 Safari/537.36" etag="RrXcRwqDcDLO7bndXAaI" version="14.6.3" type="github">
  <diagram name="Page-1" id="efa7a0a1-bf9b-a30e-e6df-94a7791c09e9">
    <mxGraphModel dx="2844" dy="1524" grid="1" gridSize="10" guides="1" tooltips="1" connect="1" arrows="1" fold="1" page="1" pageScale="1" pageWidth="826" pageHeight="1169" background="#ffffff" math="0" shadow="0">
      <root>
        <mxCell id="0" />
        <mxCell id="1" parent="0" />
        <mxCell id="a5l41PTqxrdY-ZszQ719-114" value="&lt;font style=&quot;font-size: 20px&quot;&gt;&lt;b&gt;Predicted Score&lt;/b&gt;&lt;/font&gt;" style="whiteSpace=wrap;html=1;aspect=fixed;" vertex="1" parent="1">
          <mxGeometry x="120" y="10" width="150" height="150" as="geometry" />
        </mxCell>
        <mxCell id="a5l41PTqxrdY-ZszQ719-115" value="&lt;font style=&quot;font-size: 20px&quot;&gt;Match Data&lt;/font&gt;" style="whiteSpace=wrap;html=1;aspect=fixed;" vertex="1" parent="1">
          <mxGeometry x="960" y="910" width="190" height="190" as="geometry" />
        </mxCell>
        <mxCell id="a5l41PTqxrdY-ZszQ719-118" value="&lt;font style=&quot;font-size: 20px&quot;&gt;&lt;b&gt;Process&lt;/b&gt;&lt;/font&gt;" style="whiteSpace=wrap;html=1;aspect=fixed;" vertex="1" parent="1">
          <mxGeometry x="110" y="900" width="180" height="180" as="geometry" />
        </mxCell>
        <mxCell id="a5l41PTqxrdY-ZszQ719-119" value="" style="endArrow=classic;html=1;exitX=0;exitY=0.5;exitDx=0;exitDy=0;" edge="1" parent="1" source="a5l41PTqxrdY-ZszQ719-115" target="a5l41PTqxrdY-ZszQ719-129">
          <mxGeometry width="50" height="50" relative="1" as="geometry">
            <mxPoint x="1070" y="730" as="sourcePoint" />
            <mxPoint x="1120" y="680" as="targetPoint" />
          </mxGeometry>
        </mxCell>
        <mxCell id="a5l41PTqxrdY-ZszQ719-121" value="" style="endArrow=classic;html=1;entryX=0.5;entryY=1;entryDx=0;entryDy=0;exitX=0.5;exitY=0;exitDx=0;exitDy=0;" edge="1" parent="1" source="a5l41PTqxrdY-ZszQ719-118" target="a5l41PTqxrdY-ZszQ719-138">
          <mxGeometry width="50" height="50" relative="1" as="geometry">
            <mxPoint x="1280" y="710" as="sourcePoint" />
            <mxPoint x="1120" y="670" as="targetPoint" />
          </mxGeometry>
        </mxCell>
        <mxCell id="a5l41PTqxrdY-ZszQ719-122" value="&lt;font style=&quot;font-size: 20px&quot;&gt;&lt;b&gt;Batsman&lt;/b&gt;&lt;/font&gt;" style="whiteSpace=wrap;html=1;aspect=fixed;" vertex="1" parent="1">
          <mxGeometry x="1400" y="560" width="120" height="120" as="geometry" />
        </mxCell>
        <mxCell id="a5l41PTqxrdY-ZszQ719-123" value="&lt;font style=&quot;font-size: 20px&quot;&gt;&lt;b&gt;Bowler&lt;/b&gt;&lt;/font&gt;" style="whiteSpace=wrap;html=1;aspect=fixed;" vertex="1" parent="1">
          <mxGeometry x="1404" y="940" width="116" height="116" as="geometry" />
        </mxCell>
        <mxCell id="a5l41PTqxrdY-ZszQ719-124" value="&lt;font style=&quot;font-size: 20px&quot;&gt;&lt;b&gt;Field&lt;/b&gt;&lt;/font&gt;" style="whiteSpace=wrap;html=1;aspect=fixed;" vertex="1" parent="1">
          <mxGeometry x="1400" y="1270" width="120" height="120" as="geometry" />
        </mxCell>
        <mxCell id="a5l41PTqxrdY-ZszQ719-125" value="" style="endArrow=classic;html=1;exitX=0;exitY=0.5;exitDx=0;exitDy=0;entryX=1;entryY=0.5;entryDx=0;entryDy=0;" edge="1" parent="1" source="a5l41PTqxrdY-ZszQ719-124" target="a5l41PTqxrdY-ZszQ719-115">
          <mxGeometry width="50" height="50" relative="1" as="geometry">
            <mxPoint x="1070" y="1330" as="sourcePoint" />
            <mxPoint x="1130" y="1520" as="targetPoint" />
          </mxGeometry>
        </mxCell>
        <mxCell id="a5l41PTqxrdY-ZszQ719-126" value="" style="endArrow=classic;html=1;exitX=0;exitY=0.5;exitDx=0;exitDy=0;entryX=1;entryY=0.5;entryDx=0;entryDy=0;" edge="1" parent="1" source="a5l41PTqxrdY-ZszQ719-123" target="a5l41PTqxrdY-ZszQ719-115">
          <mxGeometry width="50" height="50" relative="1" as="geometry">
            <mxPoint x="1070" y="1330" as="sourcePoint" />
            <mxPoint x="1360" y="910" as="targetPoint" />
          </mxGeometry>
        </mxCell>
        <mxCell id="a5l41PTqxrdY-ZszQ719-127" value="" style="endArrow=classic;html=1;exitX=0;exitY=0.5;exitDx=0;exitDy=0;entryX=1;entryY=0.5;entryDx=0;entryDy=0;" edge="1" parent="1" source="a5l41PTqxrdY-ZszQ719-122" target="a5l41PTqxrdY-ZszQ719-115">
          <mxGeometry width="50" height="50" relative="1" as="geometry">
            <mxPoint x="1060" y="1350" as="sourcePoint" />
            <mxPoint x="1110" y="1300" as="targetPoint" />
          </mxGeometry>
        </mxCell>
        <mxCell id="a5l41PTqxrdY-ZszQ719-128" value="&lt;font style=&quot;font-size: 20px&quot;&gt;&lt;b&gt;Validation Data&lt;/b&gt;&lt;/font&gt;" style="whiteSpace=wrap;html=1;aspect=fixed;" vertex="1" parent="1">
          <mxGeometry x="600" y="1080" width="115" height="115" as="geometry" />
        </mxCell>
        <mxCell id="a5l41PTqxrdY-ZszQ719-129" value="&lt;font style=&quot;font-size: 20px&quot;&gt;&lt;b&gt;Test Data&lt;/b&gt;&lt;/font&gt;" style="whiteSpace=wrap;html=1;aspect=fixed;" vertex="1" parent="1">
          <mxGeometry x="610" y="760" width="117.5" height="117.5" as="geometry" />
        </mxCell>
        <mxCell id="a5l41PTqxrdY-ZszQ719-130" value="" style="endArrow=classic;html=1;exitX=-0.021;exitY=0.592;exitDx=0;exitDy=0;entryX=1;entryY=0;entryDx=0;entryDy=0;exitPerimeter=0;" edge="1" parent="1" source="a5l41PTqxrdY-ZszQ719-129" target="a5l41PTqxrdY-ZszQ719-132">
          <mxGeometry width="50" height="50" relative="1" as="geometry">
            <mxPoint x="1060" y="930" as="sourcePoint" />
            <mxPoint x="810" y="620" as="targetPoint" />
          </mxGeometry>
        </mxCell>
        <mxCell id="a5l41PTqxrdY-ZszQ719-131" value="" style="endArrow=classic;html=1;exitX=0;exitY=0.5;exitDx=0;exitDy=0;entryX=1;entryY=1;entryDx=0;entryDy=0;" edge="1" parent="1" source="a5l41PTqxrdY-ZszQ719-128" target="a5l41PTqxrdY-ZszQ719-132">
          <mxGeometry width="50" height="50" relative="1" as="geometry">
            <mxPoint x="1060" y="930" as="sourcePoint" />
            <mxPoint x="740" y="550" as="targetPoint" />
          </mxGeometry>
        </mxCell>
        <mxCell id="a5l41PTqxrdY-ZszQ719-132" value="&lt;font style=&quot;font-size: 20px&quot;&gt;&lt;b&gt;Machine Learning&lt;/b&gt;&lt;/font&gt;" style="whiteSpace=wrap;html=1;aspect=fixed;" vertex="1" parent="1">
          <mxGeometry x="390" y="930" width="120" height="120" as="geometry" />
        </mxCell>
        <mxCell id="a5l41PTqxrdY-ZszQ719-133" value="" style="endArrow=classic;html=1;entryX=1;entryY=0.5;entryDx=0;entryDy=0;exitX=0;exitY=0.5;exitDx=0;exitDy=0;" edge="1" parent="1" source="a5l41PTqxrdY-ZszQ719-132" target="a5l41PTqxrdY-ZszQ719-118">
          <mxGeometry width="50" height="50" relative="1" as="geometry">
            <mxPoint x="380" y="990" as="sourcePoint" />
            <mxPoint x="1130" y="610" as="targetPoint" />
          </mxGeometry>
        </mxCell>
        <mxCell id="a5l41PTqxrdY-ZszQ719-134" value="&lt;font style=&quot;font-size: 20px&quot;&gt;&lt;b&gt;Actual Data&lt;/b&gt;&lt;/font&gt;" style="whiteSpace=wrap;html=1;aspect=fixed;" vertex="1" parent="1">
          <mxGeometry x="130" y="1260" width="140" height="140" as="geometry" />
        </mxCell>
        <mxCell id="a5l41PTqxrdY-ZszQ719-136" value="" style="endArrow=classic;html=1;exitX=1;exitY=0.5;exitDx=0;exitDy=0;entryX=0;entryY=0.5;entryDx=0;entryDy=0;" edge="1" parent="1" source="a5l41PTqxrdY-ZszQ719-128" target="a5l41PTqxrdY-ZszQ719-115">
          <mxGeometry width="50" height="50" relative="1" as="geometry">
            <mxPoint x="870" y="1140" as="sourcePoint" />
            <mxPoint x="920" y="1090" as="targetPoint" />
          </mxGeometry>
        </mxCell>
        <mxCell id="a5l41PTqxrdY-ZszQ719-137" value="" style="endArrow=classic;html=1;entryX=0.5;entryY=1;entryDx=0;entryDy=0;exitX=0.5;exitY=0;exitDx=0;exitDy=0;" edge="1" parent="1" source="a5l41PTqxrdY-ZszQ719-134" target="a5l41PTqxrdY-ZszQ719-118">
          <mxGeometry width="50" height="50" relative="1" as="geometry">
            <mxPoint x="870" y="1130" as="sourcePoint" />
            <mxPoint x="920" y="1080" as="targetPoint" />
          </mxGeometry>
        </mxCell>
        <mxCell id="a5l41PTqxrdY-ZszQ719-138" value="&lt;font style=&quot;font-size: 20px&quot;&gt;&lt;b&gt;Array of Prediction&lt;/b&gt;&lt;/font&gt;" style="whiteSpace=wrap;html=1;aspect=fixed;" vertex="1" parent="1">
          <mxGeometry x="120" y="530" width="150" height="150" as="geometry" />
        </mxCell>
        <mxCell id="a5l41PTqxrdY-ZszQ719-139" value="&lt;font style=&quot;font-size: 20px&quot;&gt;&lt;b&gt;Mean Prediction&lt;/b&gt;&lt;/font&gt;" style="whiteSpace=wrap;html=1;aspect=fixed;" vertex="1" parent="1">
          <mxGeometry x="127.5" y="270" width="135" height="135" as="geometry" />
        </mxCell>
        <mxCell id="a5l41PTqxrdY-ZszQ719-140" value="" style="endArrow=classic;html=1;entryX=0.5;entryY=1;entryDx=0;entryDy=0;exitX=0.5;exitY=0;exitDx=0;exitDy=0;" edge="1" parent="1" source="a5l41PTqxrdY-ZszQ719-138" target="a5l41PTqxrdY-ZszQ719-139">
          <mxGeometry width="50" height="50" relative="1" as="geometry">
            <mxPoint x="800" y="800" as="sourcePoint" />
            <mxPoint x="850" y="750" as="targetPoint" />
          </mxGeometry>
        </mxCell>
        <mxCell id="a5l41PTqxrdY-ZszQ719-141" value="" style="endArrow=classic;html=1;entryX=0.5;entryY=1;entryDx=0;entryDy=0;exitX=0.5;exitY=0;exitDx=0;exitDy=0;" edge="1" parent="1" source="a5l41PTqxrdY-ZszQ719-139" target="a5l41PTqxrdY-ZszQ719-114">
          <mxGeometry width="50" height="50" relative="1" as="geometry">
            <mxPoint x="800" y="800" as="sourcePoint" />
            <mxPoint x="850" y="750" as="targetPoint" />
          </mxGeometry>
        </mxCell>
        <mxCell id="a5l41PTqxrdY-ZszQ719-142" value="" style="shape=flexArrow;endArrow=classic;startArrow=classic;html=1;startWidth=24;startSize=10.9;exitX=1;exitY=0.5;exitDx=0;exitDy=0;" edge="1" parent="1" source="a5l41PTqxrdY-ZszQ719-114" target="a5l41PTqxrdY-ZszQ719-143">
          <mxGeometry width="100" height="100" relative="1" as="geometry">
            <mxPoint x="780" y="830" as="sourcePoint" />
            <mxPoint x="880" y="730" as="targetPoint" />
          </mxGeometry>
        </mxCell>
        <mxCell id="a5l41PTqxrdY-ZszQ719-143" value="&lt;font style=&quot;font-size: 20px&quot;&gt;&lt;b&gt;Actual Score&lt;/b&gt;&lt;/font&gt;" style="whiteSpace=wrap;html=1;aspect=fixed;" vertex="1" parent="1">
          <mxGeometry x="710" y="10" width="150" height="150" as="geometry" />
        </mxCell>
        <mxCell id="a5l41PTqxrdY-ZszQ719-144" value="&lt;b&gt;&lt;font style=&quot;font-size: 40px&quot;&gt;Featured Datas&lt;/font&gt;&lt;/b&gt;&lt;br&gt;&lt;span style=&quot;font-size: 23px&quot;&gt;Run Rate&lt;/span&gt;&lt;br&gt;&lt;span style=&quot;font-size: 23px&quot;&gt;Bowler Economy&lt;/span&gt;&lt;br&gt;&lt;span style=&quot;font-size: 23px&quot;&gt;Pitch Condition&lt;/span&gt;&lt;br&gt;&lt;span style=&quot;font-size: 23px&quot;&gt;Strike Rate&lt;/span&gt;&lt;br&gt;&lt;span style=&quot;font-size: 23px&quot;&gt;Wickets Left&lt;/span&gt;&lt;br&gt;&lt;span style=&quot;font-size: 23px&quot;&gt;Balls Left&lt;/span&gt;&lt;br&gt;&lt;span style=&quot;font-size: 23px&quot;&gt;Extras&lt;/span&gt;&lt;br&gt;&lt;span style=&quot;font-size: 23px&quot;&gt;Win rate&lt;/span&gt;&lt;br&gt;&lt;span style=&quot;font-size: 23px&quot;&gt;Head to Head&lt;/span&gt;&lt;br&gt;&lt;span style=&quot;font-size: 23px&quot;&gt;Avg 6-Over Score&lt;/span&gt;&lt;br&gt;&lt;span style=&quot;font-size: 23px&quot;&gt;Team on Venue&lt;/span&gt;&lt;br&gt;&lt;span style=&quot;font-size: 23px&quot;&gt;Defender&#39;s Economy&lt;/span&gt;" style="text;html=1;strokeColor=none;fillColor=none;align=center;verticalAlign=middle;whiteSpace=wrap;rounded=0;" vertex="1" parent="1">
          <mxGeometry x="920" width="590" height="520" as="geometry" />
        </mxCell>
        <mxCell id="a5l41PTqxrdY-ZszQ719-146" value="" style="shape=flexArrow;endArrow=classic;startArrow=classic;html=1;entryX=0.5;entryY=1;entryDx=0;entryDy=0;startWidth=18;startSize=16.16;exitX=0.5;exitY=0;exitDx=0;exitDy=0;" edge="1" parent="1" source="a5l41PTqxrdY-ZszQ719-115" target="a5l41PTqxrdY-ZszQ719-144">
          <mxGeometry width="100" height="100" relative="1" as="geometry">
            <mxPoint x="780" y="830" as="sourcePoint" />
            <mxPoint x="880" y="730" as="targetPoint" />
          </mxGeometry>
        </mxCell>
      </root>
    </mxGraphModel>
  </diagram>
</mxfile>
